Coordinates
version=1
nRows=26
nColumns=24
inDegrees=yes

Units are S.I. units (second, meters, Newtons, ...)
Angles are in degrees.

endheader
time	pelvis_tilt	pelvis_list	pelvis_rotation	pelvis_tx	pelvis_ty	pelvis_tz	hip_flexion_r	hip_adduction_r	hip_rotation_r	knee_angle_r	ankle_angle_r	subtalar_angle_r	mtp_angle_r	hip_flexion_l	hip_adduction_l	hip_rotation_l	knee_angle_l	ankle_angle_l	subtalar_angle_l	mtp_angle_l	lumbar_extension	lumbar_bending	lumbar_rotation
      1.49766667	     -4.13523808	      7.78661981	     -2.35140822	      0.39714344	      0.89109017	      0.33946121	     16.23824731	    -11.87129675	     -7.43976642	    -70.33181087	      8.99743365	      6.28033843	      8.96039534	     18.05055715	     11.59014265	     -4.67710206	    -23.02489084	     10.46342746	     -8.63769092	     -0.02743813	     -0.26083383	    -11.94133112	      5.53093238
      1.50183333	     -4.08210135	      7.65710885	     -2.20811081	      0.40196976	      0.89234380	      0.33928794	     16.86476262	    -11.67561204	     -7.47449250	    -70.04267868	      9.59463804	      6.22395209	      8.87651091	     17.36513913	     11.53021018	     -4.46651813	    -22.51073409	     10.49404255	     -8.50809309	      0.00996389	     -0.36770252	    -11.80774539	      5.28446857
      1.50600000	     -4.00478624	      7.52466193	     -2.05639443	      0.40683033	      0.89363332	      0.33907591	     17.44126329	    -11.49109394	     -7.53164096	    -69.68494167	     10.11204935	      6.19413134	      8.73624803	     16.63355157	     11.47527922	     -4.21915295	    -21.95807890	     10.52059854	     -8.41739552	      0.06582948	     -0.48559662	    -11.66562551	      4.94449547
      1.51016667	     -3.95841430	      7.40235322	     -1.88639097	      0.41163996	      0.89483234	      0.33884650	     18.04746034	    -11.31780524	     -7.59561772	    -69.29372960	     10.63474790	      6.10314667	      8.43741020	     15.94413774	     11.43042954	     -3.94751070	    -21.40958846	     10.48173306	     -8.36198102	      0.17429965	     -0.58379820	    -11.54920433	      4.59463166
      1.51433333	     -3.89236226	      7.23759696	     -1.70747699	      0.41642536	      0.89603075	      0.33862176	     18.60710657	    -11.09609190	     -7.67870558	    -68.83541579	     11.14605369	      6.00403647	      8.36861091	     15.25837925	     11.32782666	     -3.70999749	    -20.92277956	     10.52493640	     -8.22023787	      0.20442960	     -0.71764524	    -11.36039767	      4.46104887
      1.51850000	     -3.79819179	      7.08395436	     -1.51924853	      0.42123850	      0.89725790	      0.33836525	     19.11493609	    -10.90124155	     -7.78285270	    -68.31742918	     11.58840192	      5.90674438	      8.27499370	     14.51910236	     11.24437036	     -3.43171485	    -20.38498911	     10.53382470	     -8.11563499	      0.24016187	     -0.88284304	    -11.19085414	      4.17332700
      1.52266667	     -3.69666873	      6.93781875	     -1.32737886	      0.42607058	      0.89846841	      0.33807324	     19.59967015	    -10.72843532	     -7.89978274	    -67.74752150	     11.96776260	      5.81445167	      8.12853421	     13.75795326	     11.17165616	     -3.13009263	    -19.81418288	     10.54354967	     -8.07318210	      0.28923009	     -1.02640820	    -11.02357535	      3.79961631
      1.52683333	     -3.61534277	      6.79065180	     -1.11475346	      0.43086453	      0.89960331	      0.33777816	     20.09204855	    -10.55445723	     -8.02771288	    -67.13567690	     12.36143807	      5.68660370	      7.91972070	     13.03206178	     11.09347591	     -2.80585260	    -19.26362760	     10.50748046	     -8.04270778	      0.35417425	     -1.16288426	    -10.88165090	      3.44234588
      1.53100000	     -3.51573025	      6.62164204	     -0.90047232	      0.43564979	      0.90073147	      0.33746253	     20.54542708	    -10.36236271	     -8.16974944	    -66.46442150	     12.69098236	      5.52894554	      7.79095732	     12.29475031	     10.98529295	     -2.49728131	    -18.73239580	     10.52954455	     -7.96504992	      0.39385938	     -1.33120151	    -10.66330665	      3.19047490
      1.53516667	     -3.41728381	      6.45824659	     -0.67416408	      0.44043137	      0.90181644	      0.33713549	     20.98362999	    -10.18369727	     -8.32504675	    -65.74842303	     12.99878141	      5.35419490	      7.65702394	     11.55813621	     10.88014221	     -2.17242327	    -18.19328825	     10.52309129	     -7.91022012	      0.43191154	     -1.49488206	    -10.47336618	      2.86771206
      1.53933333	     -3.34224489	      6.29022543	     -0.42772920	      0.44519756	      0.90281762	      0.33679180	     21.42842207	    -10.00785784	     -8.50014587	    -64.98702878	     13.31782424	      5.14641432	      7.57287186	     10.86712084	     10.75908052	     -1.86571234	    -17.69135315	     10.49553291	     -7.81565192	      0.45553861	     -1.62342772	    -10.27870225	      2.63429536
      1.54350000	     -3.22521125	      6.11516472	     -0.19303041	      0.44995869	      0.90386056	      0.33646774	     21.81009750	     -9.81919602	     -8.66333142	    -64.16261131	     13.52776828	      4.92176981	      7.46467017	     10.11520893	     10.63081958	     -1.51611247	    -17.15347669	     10.49256483	     -7.77925127	      0.48307943	     -1.82185720	    -10.09150949	      2.28958566
      1.54766667	     -3.12284233	      5.95480737	      0.04648564	      0.45473293	      0.90482113	      0.33611621	     22.19660212	     -9.65833049	     -8.83436976	    -63.30586137	     13.71054547	      4.68651801	      7.34133644	      9.37959027	     10.51353945	     -1.17009361	    -16.61229980	     10.48734742	     -7.76252497	      0.51274905	     -1.98227405	     -9.90794840	      1.92928452
      1.55183333	     -3.01429451	      5.80970178	      0.28121963	      0.45950398	      0.90572811	      0.33574550	     22.57049106	     -9.52445728	     -9.00865470	    -62.42136839	     13.85088967	      4.42665206	      7.16858635	      8.63112484	     10.40927863	     -0.82051208	    -16.04988457	     10.48438314	     -7.78746127	      0.55252856	     -2.14495803	     -9.70396915	      1.52363500
      1.55600000	     -2.92925090	      5.67031136	      0.53857698	      0.46423844	      0.90655442	      0.33536429	     22.95240286	     -9.39950624	     -9.19005222	    -61.49772548	     14.01586833	      4.15953630	      6.88074265	      7.92101485	     10.30753577	     -0.43584988	    -15.50452986	     10.41061657	     -7.82505921	      0.61743520	     -2.29786246	     -9.54373578	      1.09194886
      1.56016667	     -2.84383137	      5.49257840	      0.79235593	      0.46898814	      0.90734818	      0.33501435	     23.30361526	     -9.22792757	     -9.38368003	    -60.49858696	     14.09396543	      3.85480126	      6.76458715	      7.24122732	     10.14334893	     -0.14013512	    -15.02769541	     10.44199751	     -7.74352046	      0.64482687	     -2.42505797	     -9.33364405	      0.90234213
      1.56433333	     -2.74887569	      5.36418733	      1.04459996	      0.47373302	      0.90808350	      0.33463155	     23.64610791	     -9.12216032	     -9.56351584	    -59.49665463	     14.16900553	      3.54666381	      6.42470979	      6.51866017	     10.03908011	      0.23827185	    -14.47137275	     10.38913693	     -7.80082585	      0.72136964	     -2.57879714	     -9.16678939	      0.40008266
      1.56850000	     -2.66678050	      5.19137195	      1.29945679	      0.47846785	      0.90877232	      0.33429143	     23.97138925	     -8.95714800	     -9.75200086	    -58.41748284	     14.17375269	      3.19278334	      6.32099816	      5.85306904	      9.86398042	      0.51925820	    -14.00334365	     10.41991360	     -7.69763237	      0.74653342	     -2.70798575	     -8.95716000	      0.23719982
      1.57266667	     -2.57273325	      5.07780516	      1.54096739	      0.48320982	      0.90939127	      0.33392822	     24.29033930	     -8.86714161	     -9.92161930	    -57.34635045	     14.18226995	      2.84651179	      6.01246389	      5.14181773	      9.75920855	      0.86265965	    -13.45954683	     10.38950777	     -7.74127777	      0.82095812	     -2.85020594	     -8.80616288	     -0.25085767
      1.57683333	     -2.49951093	      4.92087318	      1.79110819	      0.48793514	      0.90995584	      0.33359405	     24.59957692	     -8.72151562	    -10.10029743	    -56.19941219	     14.12676335	      2.47629395	      5.90740834	      4.49513290	      9.58890857	      1.13322855	    -13.00149465	     10.42076298	     -7.64155419	      0.84767607	     -2.97033846	     -8.61012686	     -0.42139469
      1.58100000	     -2.40981051	      4.80488175	      2.01364577	      0.49267922	      0.91046308	      0.33327669	     24.89392606	     -8.61697582	    -10.24384192	    -55.04814134	     14.04661065	      2.08501257	      5.75387249	      3.80548239	      9.46087686	      1.41046572	    -12.48686238	     10.45605877	     -7.61292391	      0.88764985	     -3.10200795	     -8.45316262	     -0.77720907
      1.58516667	     -2.33804949	      4.69624877	      2.25001982	      0.49740098	      0.91089405	      0.33295112	     25.19070433	     -8.52664754	    -10.39647832	    -53.86496641	     13.97072556	      1.71344490	      5.56339539	      3.14633174	      9.33593936	      1.70764206	    -11.99078625	     10.44957503	     -7.58965665	      0.93858705	     -3.22352043	     -8.31121267	     -1.12680427
      1.58933333	     -2.28369905	      4.57394276	      2.49952365	      0.50212895	      0.91126029	      0.33261779	     25.47835598	     -8.42825924	    -10.57291912	    -52.63239363	     13.87238318	      1.35693409	      5.45105919	      2.53019485	      9.18576549	      1.96329142	    -11.54265982	     10.44022914	     -7.50320455	      0.96941069	     -3.31121100	     -8.15314825	     -1.35332607
      1.59350000	     -2.21395238	      4.47218137	      2.72520323	      0.50685757	      0.91158588	      0.33232586	     25.74641413	     -8.34121676	    -10.71988718	    -51.38401181	     13.74055628	      0.96871881	      5.33051738	      1.88023472	      9.05209683	      2.21858587	    -11.05410395	     10.44924751	     -7.44011337	      1.00337363	     -3.42616215	     -8.00876889	     -1.65220429
      1.59766667	     -2.15732225	      4.38722589	      2.94617273	      0.51159232	      0.91182994	      0.33203324	     26.01599470	     -8.27349732	    -10.85313255	    -50.11329988	     13.61234131	      0.62358135	      5.20997479	      1.25114408	      8.93310915	      2.46684390	    -10.58248803	     10.46144655	     -7.38259774	      1.03847688	     -3.51106911	     -7.89593571	     -1.94407973
      1.60183333	     -2.09345576	      4.32340648	      3.14368843	      0.51633787	      0.91200939	      0.33177541	     26.27629381	     -8.21973843	    -10.96084922	    -48.83664261	     13.47083055	      0.27559166	      5.04282273	      0.60018996	      8.83275134	      2.71168278	    -10.08239491	     10.49501414	     -7.36322708	      1.08981869	     -3.61002071	     -7.79980569	     -2.27938318
